<svg width="18" height="18" viewBox="0 0 18 18" fill="none" xmlns="http://www.w3.org/2000/svg">
<g clip-path="url(#clip0_14_1160)">
<path d="M0 0H18V18H0V0Z" fill="#EE1C25"/>
<path d="M7.20005 3.68999L2.61005 6.65999L4.50005 1.79999L6.12005 6.65999L1.80005 3.68999H7.20005Z" fill="#FFFF00"/>
<path d="M8.31719 1.1619L9.95269 1.96294L8.24076 2.25709L9.3505 0.960731L9.24363 2.70376L8.31719 1.1619Z" fill="#FFFF00"/>
<path d="M10.4017 2.74952L11.5974 4.12476L9.90481 3.72931L11.4326 2.96644L10.6553 4.53156L10.4017 2.74952Z" fill="#FFFF00"/>
<path d="M10.778 5.36241L11.3082 7.10695L9.92387 6.05426L11.6309 5.98167L10.2816 7.09361L10.778 5.36241Z" fill="#FFFF00"/>
<path d="M9.35187 7.22925L9.16782 9.0414L8.29797 7.5375L9.89907 8.1288L8.22687 8.63325L9.35187 7.22925Z" fill="#FFFF00"/>
</g>
<defs>
<clipPath id="clip0_14_1160">
<rect width="18" height="18" rx="9" fill="white"/>
</clipPath>
</defs>
</svg>
