<svg width="18" height="18" viewBox="0 0 18 18" fill="none" xmlns="http://www.w3.org/2000/svg">
<g clip-path="url(#clip0_14_1247)">
<path fill-rule="evenodd" clip-rule="evenodd" d="M0 0H18V18H0V0Z" fill="white"/>
<path fill-rule="evenodd" clip-rule="evenodd" d="M0.772583 5.88341L2.97842 2.59986L3.52398 2.96732L1.31814 6.25088L0.772583 5.88341ZM1.59092 6.43461L3.79676 3.15106L4.34232 3.51852L2.13649 6.80207L1.59092 6.43461ZM2.40927 6.98581L4.6151 3.70225L5.16066 4.06972L2.95483 7.35327L2.40927 6.98581Z" fill="black"/>
<path fill-rule="evenodd" clip-rule="evenodd" d="M12.8375 13.9297L15.0434 10.6462L15.5889 11.0136L13.3831 14.2972L12.8375 13.9297ZM13.6559 14.4809L15.8617 11.1974L16.4073 11.5648L14.2014 14.8484L13.6559 14.4809ZM14.4742 15.0321L16.68 11.7486L17.2256 12.116L15.0198 15.3996L14.4742 15.0321Z" fill="black"/>
<path fill-rule="evenodd" clip-rule="evenodd" d="M13.6605 12.1085L16.4026 13.9372Z" fill="black"/>
<path d="M13.6605 12.1085L16.4026 13.9372" stroke="white" stroke-width="0.585938"/>
<path fill-rule="evenodd" clip-rule="evenodd" d="M5.70862 6.79168C6.29365 5.92261 7.2008 5.32104 8.23049 5.11933C9.26018 4.91762 10.3281 5.13227 11.1992 5.71608C12.0704 6.29989 12.6735 7.20502 12.8758 8.23237C13.0781 9.25971 12.8631 10.3251 12.2781 11.1942L5.70862 6.79168Z" fill="#CD2E3A"/>
<path fill-rule="evenodd" clip-rule="evenodd" d="M5.71999 6.79902C5.13497 7.66839 4.91968 8.73434 5.12148 9.76237C5.32329 10.7904 5.92565 11.6963 6.79607 12.2808C7.66649 12.8653 8.73365 13.0805 9.7628 12.879C10.792 12.6776 11.6988 12.076 12.2838 11.2067C12.5763 10.772 12.684 10.239 12.5831 9.72501C12.4822 9.21099 12.181 8.75804 11.7458 8.46579C11.3106 8.17355 10.777 8.06595 10.2624 8.16667C9.74783 8.26738 9.29441 8.56817 9.0019 9.00285L5.71999 6.79902Z" fill="#0047A0"/>
<path d="M8.99383 9.00522C9.60273 8.09962 9.36213 6.87178 8.45642 6.26277C7.55071 5.65375 6.32288 5.89418 5.71397 6.79978C5.10507 7.70538 5.34567 8.93321 6.25138 9.54223C7.15708 10.1512 8.38492 9.91082 8.99383 9.00522Z" fill="#CD2E3A"/>
<path fill-rule="evenodd" clip-rule="evenodd" d="M2.98022 15.3996L0.774387 12.116L1.31995 11.7486L3.52579 15.0321L2.98022 15.3996ZM3.79857 14.8484L1.59273 11.5648L2.13829 11.1974L4.34413 14.4809L3.79857 14.8484ZM4.61691 14.2972L2.41107 11.0136L2.95663 10.6462L5.16247 13.9297L4.61691 14.2972Z" fill="black"/>
<path fill-rule="evenodd" clip-rule="evenodd" d="M15.0452 7.35327L12.8393 4.06972L13.3849 3.70225L15.5907 6.9858L15.0452 7.35327ZM15.8635 6.80207L13.6577 3.51852L14.2032 3.15105L16.4091 6.43461L15.8635 6.80207ZM16.6818 6.25087L14.476 2.96732L15.0216 2.59986L17.2274 5.88341L16.6818 6.25087Z" fill="black"/>
<path fill-rule="evenodd" clip-rule="evenodd" d="M2.55713 13.2972L3.37974 12.7486ZM13.6624 5.89092L14.6221 5.25087ZM15.4447 4.70226L16.2673 4.15364Z" fill="black"/>
<path d="M2.55713 13.2972L3.37974 12.7486M13.6624 5.89092L14.6221 5.25087M15.4447 4.70226L16.2673 4.15364" stroke="white" stroke-width="0.585938"/>
</g>
<defs>
<clipPath id="clip0_14_1247">
<rect width="18" height="18" rx="9" fill="white"/>
</clipPath>
</defs>
</svg>
