<svg width="18" height="18" viewBox="0 0 18 18" fill="none" xmlns="http://www.w3.org/2000/svg">
<g clip-path="url(#clip0_14_1084)">
<path d="M0 0H18V18H0" fill="#BD3D44"/>
<path d="M0 2.03906H18ZM0 4.81641H18ZM0 7.59375H18ZM0 10.3711H18ZM0 13.1484H18ZM0 15.9258H18Z" fill="black"/>
<path d="M0 2.03906H18M0 4.81641H18M0 7.59375H18M0 10.3711H18M0 13.1484H18M0 15.9258H18" stroke="white" stroke-width="1.4"/>
<path d="M0 0H13.7109V9.66797H0V0Z" fill="#192F5D"/>
<mask id="mask0_14_1084" style="mask-type:alpha" maskUnits="userSpaceOnUse" x="0" y="0" width="14" height="10">
<path d="M0 0H13.7109V9.66797H0V0Z" fill="#192F5D"/>
</mask>
<g mask="url(#mask0_14_1084)">
<path fill-rule="evenodd" clip-rule="evenodd" d="M1.34297 2.31055L0.839629 2.66343L1.00956 2.03545L0.5625 1.63749H1.14643L1.34227 1.125L1.57191 1.63749H2.06969L1.67857 2.03545L1.82999 2.66343L1.34297 2.31055ZM4.11668 2.31057L3.61333 2.66344L3.78327 2.03547L3.3362 1.6375H3.92013L4.11597 1.12502L4.34562 1.6375H4.8434L4.45228 2.03547L4.6037 2.66344L4.11668 2.31057ZM6.38704 2.66344L6.89038 2.31057L7.3774 2.66344L7.22598 2.03547L7.6171 1.6375H7.11932L6.88968 1.12502L6.69383 1.6375H6.10991L6.55697 2.03547L6.38704 2.66344ZM9.66408 2.31057L9.16074 2.66344L9.33067 2.03547L8.88361 1.6375H9.46754L9.66338 1.12502L9.89302 1.6375H10.3908L9.99969 2.03547L10.1511 2.66344L9.66408 2.31057ZM0.839629 5.43714L1.34297 5.08426L1.82999 5.43714L1.67857 4.80917L2.06969 4.4112H1.57191L1.34227 3.89871L1.14643 4.4112H0.5625L1.00956 4.80917L0.839629 5.43714ZM4.11668 5.08426L3.61333 5.43714L3.78327 4.80917L3.3362 4.4112H3.92013L4.11597 3.89871L4.34562 4.4112H4.8434L4.45228 4.80917L4.6037 5.43714L4.11668 5.08426ZM6.38704 5.43714L6.89038 5.08426L7.3774 5.43714L7.22598 4.80917L7.6171 4.4112H7.11932L6.88968 3.89871L6.69383 4.4112H6.10991L6.55697 4.80917L6.38704 5.43714ZM9.66408 5.08426L9.16074 5.43714L9.33067 4.80917L8.88361 4.4112H9.46754L9.66338 3.89871L9.89302 4.4112H10.3908L9.99969 4.80917L10.1511 5.43714L9.66408 5.08426ZM0.839629 8.21084L1.34297 7.85797L1.82999 8.21084L1.67857 7.58287L2.06969 7.1849H1.57191L1.34227 6.67242L1.14643 7.1849H0.5625L1.00956 7.58287L0.839629 8.21084ZM4.11668 7.85797L3.61333 8.21084L3.78327 7.58287L3.3362 7.1849H3.92013L4.11597 6.67242L4.34562 7.1849H4.8434L4.45228 7.58287L4.6037 8.21084L4.11668 7.85797ZM6.38704 8.21084L6.89038 7.85797L7.3774 8.21084L7.22598 7.58287L7.6171 7.1849H7.11932L6.88968 6.67242L6.69383 7.1849H6.10991L6.55697 7.58287L6.38704 8.21084ZM9.66408 7.85797L9.16074 8.21084L9.33067 7.58287L8.88361 7.1849H9.46754L9.66338 6.67242L9.89302 7.1849H10.3908L9.99969 7.58287L10.1511 8.21084L9.66408 7.85797ZM11.9344 2.66344L12.4378 2.31057L12.9248 2.66344L12.7734 2.03547L13.1645 1.6375H12.6667L12.4371 1.12502L12.2412 1.6375H11.6573L12.1044 2.03547L11.9344 2.66344ZM12.4378 5.08426L11.9344 5.43714L12.1044 4.80917L11.6573 4.4112H12.2412L12.4371 3.89871L12.6667 4.4112H13.1645L12.7734 4.80917L12.9248 5.43714L12.4378 5.08426ZM11.9344 8.21084L12.4378 7.85797L12.9248 8.21084L12.7734 7.58287L13.1645 7.1849H12.6667L12.4371 6.67242L12.2412 7.1849H11.6573L12.1044 7.58287L11.9344 8.21084ZM2.72982 3.69741L2.22648 4.05029L2.39641 3.42231L1.94935 3.02435H2.53328L2.72912 2.51186L2.95876 3.02435H3.45654L3.06543 3.42231L3.21684 4.05029L2.72982 3.69741ZM5.00018 4.05029L5.50353 3.69741L5.99055 4.05029L5.83913 3.42231L6.23025 3.02435H5.73247L5.50282 2.51186L5.30698 3.02435H4.72306L5.17012 3.42231L5.00018 4.05029ZM8.27723 3.69741L7.77389 4.05029L7.94382 3.42231L7.49676 3.02435H8.08068L8.27653 2.51186L8.50617 3.02435H9.00395L8.61283 3.42231L8.76425 4.05029L8.27723 3.69741ZM2.22648 6.82399L2.72982 6.47111L3.21684 6.82399L3.06543 6.19602L3.45654 5.79805H2.95876L2.72912 5.28556L2.53328 5.79805H1.94935L2.39641 6.19602L2.22648 6.82399ZM5.50353 6.47111L5.00018 6.82399L5.17012 6.19602L4.72306 5.79805H5.30698L5.50282 5.28556L5.73247 5.79805H6.23025L5.83913 6.19602L5.99055 6.82399L5.50353 6.47111ZM7.77389 6.82399L8.27723 6.47111L8.76425 6.82399L8.61283 6.19602L9.00395 5.79805H8.50617L8.27653 5.28556L8.08068 5.79805H7.49676L7.94382 6.19602L7.77389 6.82399ZM11.0509 3.69741L10.5476 4.05029L10.7175 3.42231L10.2705 3.02435H10.8544L11.0502 2.51186L11.2799 3.02435H11.7777L11.3865 3.42231L11.538 4.05029L11.0509 3.69741ZM10.5476 6.82399L11.0509 6.47111L11.538 6.82399L11.3865 6.19602L11.7777 5.79805H11.2799L11.0502 5.28556L10.8544 5.79805H10.2705L10.7175 6.19602L10.5476 6.82399Z" fill="#F7FCFF"/>
</g>
</g>
<defs>
<clipPath id="clip0_14_1084">
<rect width="18" height="18" rx="9" fill="white"/>
</clipPath>
</defs>
</svg>
